<?xml version="1.0" standalone="no"?>
<!DOCTYPE svg PUBLIC "-//W3C//DTD SVG 20010904//EN"
 "http://www.w3.org/TR/2001/REC-SVG-20010904/DTD/svg10.dtd">
<svg version="1.0" xmlns="http://www.w3.org/2000/svg"
 width="200.000000pt" height="200.000000pt" viewBox="0 0 200.000000 200.000000"
 preserveAspectRatio="xMidYMid meet">

<g transform="translate(0.000000,200.000000) scale(0.100000,-0.100000)"
fill="#000000" stroke="none">
<path d="M930 1330 c-38 -38 -15 -90 40 -90 47 0 68 61 32 93 -25 22 -48 21
-72 -3z m68 -29 c5 -32 -23 -54 -49 -40 -11 5 -19 18 -19 27 0 45 62 56 68 13z"/>
<path d="M788 1246 c-15 -8 -24 -22 -26 -43 -6 -65 88 -83 104 -19 12 50 -31
85 -78 62z m50 -18 c28 -28 1 -75 -38 -63 -14 4 -20 15 -20 35 0 37 33 53 58
28z"/>
<path d="M1086 1244 c-34 -33 -9 -94 38 -94 28 0 56 29 56 57 0 44 -63 69 -94
37z m69 -39 c0 -27 -3 -30 -30 -30 -21 0 -31 5 -33 18 -6 33 6 49 35 45 24 -3
28 -8 28 -33z"/>
<path d="M1092 1074 c-53 -37 0 -120 59 -91 30 16 37 61 13 88 -21 23 -42 24
-72 3z m52 -10 c23 -9 20 -51 -5 -64 -37 -20 -67 28 -37 58 14 14 20 14 42 6z"/>
<path d="M776 1064 c-9 -8 -16 -24 -16 -35 0 -24 34 -59 58 -59 41 0 69 69 40
98 -17 17 -64 15 -82 -4z m74 -40 c0 -28 -25 -42 -49 -27 -23 15 -26 45 -6 59
25 18 55 0 55 -32z"/>
<path d="M932 978 c-31 -31 0 -98 45 -98 25 0 53 30 53 57 0 42 -68 71 -98 41z
m75 -24 c9 -24 -10 -49 -38 -49 -24 0 -36 23 -25 51 7 19 55 18 63 -2z"/>
</g>
</svg>
